<svg width="769" height="207" viewBox="0 0 769 207" fill="none" xmlns="http://www.w3.org/2000/svg">
<path d="M140.563 22.9375C142.045 22.9321 143.528 22.9243 145.01 22.9143C148.1 22.9026 151.188 22.9194 154.278 22.957C158.21 23.0026 162.137 22.9763 166.068 22.9285C169.125 22.8993 172.18 22.9088 175.236 22.9295C176.684 22.9348 178.132 22.9285 179.58 22.9096C189.981 22.804 196.158 25.0224 204 32C205.604 33.245 207.215 34.4811 208.836 35.7031C210.35 36.8836 211.863 38.0659 213.375 39.25C214.142 39.8481 214.909 40.4463 215.699 41.0625C217.162 42.2041 218.622 43.3479 220.081 44.4941C221.707 45.7698 223.341 47.0345 224.977 48.2969C227 50 227 50 228 52C228.112 54.0359 228.159 56.0756 228.177 58.1145C228.196 60.0421 228.196 60.0421 228.216 62.0086C228.224 63.4185 228.232 64.8284 228.238 66.2383C228.242 66.9473 228.246 67.6564 228.251 68.3869C228.272 72.1403 228.286 75.8937 228.295 79.6472C228.306 83.5211 228.341 87.3944 228.38 91.2681C228.407 94.2493 228.415 97.2304 228.418 100.212C228.423 101.639 228.435 103.067 228.454 104.495C228.478 106.495 228.475 108.496 228.47 110.497C228.476 111.635 228.482 112.772 228.488 113.945C227.888 117.701 226.645 119.311 224 122C221.5 123.444 219.125 124.648 216.5 125.812C215.32 126.354 215.32 126.354 214.116 126.907C211.085 128.289 208.043 129.645 205 131C203.566 131.642 202.131 132.284 200.697 132.926C192.769 136.475 184.834 140.009 176.891 143.523C175.854 143.982 175.854 143.982 174.796 144.451C173.491 145.027 172.185 145.602 170.878 146.174C169.611 146.731 168.348 147.295 167.088 147.866C161.72 150.26 157.333 151.183 151.743 149.199C149.135 148.026 146.602 146.751 144.063 145.438C142.046 144.43 140.028 143.426 138.008 142.426C136.905 141.879 135.802 141.332 134.665 140.768C130.607 138.788 126.491 136.943 122.367 135.105C121.629 134.775 120.891 134.445 120.13 134.106C117.171 132.784 114.211 131.465 111.245 130.162C109.158 129.244 107.077 128.314 104.996 127.383C103.791 126.851 102.587 126.318 101.345 125.77C96.4455 123.178 92.0542 120.37 90 115C89.7259 112.168 89.7259 112.168 89.6936 108.858C89.6776 107.616 89.6617 106.375 89.6452 105.095C89.6388 103.743 89.6334 102.391 89.6289 101.039C89.62 99.6467 89.6108 98.2543 89.6016 96.8619C89.5851 93.945 89.5774 91.0283 89.5745 88.1113C89.5691 84.3831 89.5314 80.656 89.4857 76.9281C89.4559 74.0523 89.4488 71.1769 89.4478 68.301C89.4436 66.9271 89.4312 65.5532 89.4102 64.1795C89.2409 52.1057 89.2409 52.1057 92.2688 48.3213C93.1701 47.5553 94.0714 46.7892 95 46C95.7053 45.393 96.4106 44.786 97.1372 44.1606C97.837 43.6565 98.5368 43.1523 99.2578 42.6328C100.049 42.0566 100.841 41.4804 101.656 40.8867C102.471 40.3054 103.286 39.724 104.125 39.125C104.917 38.5514 105.708 37.9777 106.523 37.3867C108.114 36.2348 109.713 35.0944 111.321 33.9668C114.005 32.0567 114.005 32.0567 116.353 29.9326C124.067 23.4487 130.895 22.8118 140.563 22.9375Z" fill="#51A24C"/>
<path d="M86 19C87.32 19 88.64 19 90 19C90.1353 22.064 90.2342 25.122 90.3125 28.1875C90.3544 29.0518 90.3963 29.9161 90.4395 30.8066C90.5644 37.3276 90.5644 37.3276 87.5703 40.8945C86.7221 41.5893 85.8739 42.2841 85 43C84.5256 44.155 84.0513 45.31 83.5625 46.5C81.4564 50.5548 78.3284 51.1591 74.125 52.5C72.2649 53.0878 72.2649 53.0878 70.3672 53.6875C64.9196 55.8109 62.4183 59.0362 59.9575 64.1785C58.2095 69.3292 58.6281 74.793 58.6294 80.1824C58.625 82.2962 58.5887 84.408 58.5508 86.5215C58.4739 95.7403 59.3476 101.558 65.3125 108.812C69.2712 112.035 73.0332 113.961 78.1875 114.062C79.1156 114.372 80.0437 114.681 81 115C82.131 117.348 82.8811 119.648 83.5547 122.164C87.9096 130.709 96.8414 134.123 105.25 137.625C107.647 138.655 110.043 139.688 112.438 140.723C113.052 140.986 113.667 141.25 114.301 141.522C121.351 144.557 128.3 147.806 135.25 151.062C138.584 152.623 141.918 154.182 145.26 155.727C146.881 156.48 148.496 157.245 150.1 158.035C154.704 160.223 158.978 160.966 163.942 159.379C166.086 158.479 168.174 157.501 170.266 156.484C171.049 156.117 171.833 155.749 172.64 155.371C175.182 154.176 177.716 152.963 180.25 151.75C182.881 150.509 185.515 149.273 188.148 148.037C189.909 147.21 191.669 146.382 193.428 145.552C201.114 141.929 208.853 138.434 216.625 135C217.718 134.515 218.812 134.03 219.938 133.53C224.268 131.617 228.597 129.739 233 128C233 127.34 233 126.68 233 126C233.66 126.33 234.32 126.66 235 127C221.871 150.734 199.052 167.534 173.125 175.188C170.755 175.811 168.38 176.414 166 177C164.958 177.265 164.958 177.265 163.896 177.535C161.683 178.097 159.467 178.645 157.25 179.188C156.577 179.355 155.905 179.522 155.211 179.694C144.62 182.193 133.974 182.186 123.152 182.185C120.703 182.187 118.255 182.206 115.807 182.225C107.558 182.252 99.8148 181.787 91.6604 180.395C83.5293 179.187 78.009 182.89 71.25 186.875C70.2437 187.453 69.2375 188.032 68.2007 188.628C63.2953 191.455 58.4268 194.337 53.5859 197.273C52.3267 198.028 52.3267 198.028 51.042 198.797C49.479 199.737 47.9242 200.69 46.3799 201.66C41.4015 204.65 36.8737 206.153 31 206C30 205 30 205 29.7852 202.023C29.8531 197.35 31.1439 193.087 32.4375 188.625C34.0343 183.079 35.2954 177.763 35.8147 172.005C35.9676 170.351 36.2137 168.705 36.4844 167.066C36.8017 164.075 36.7846 161.921 36 159C32.7593 155.092 28.9671 152.137 25 149C23.3083 147.359 21.6395 145.693 20 144C19.3426 143.352 18.6852 142.703 18.0078 142.035C7.06115 130.566 0.98273 114.669 0.5625 98.875C1.33394 78.0462 11.3862 62.0035 26.1875 47.875C41.6736 34.3005 62.452 23.491 82.8828 20.3945C84.9779 20.2106 84.9779 20.2106 86 19Z" fill="#73C1E7"/>
<path d="M131.181 23.7595C132.15 23.74 132.15 23.74 133.138 23.7201C139.932 23.5928 146.728 23.5365 153.524 23.4851C156.741 23.4585 159.956 23.4099 163.172 23.3416C167.064 23.259 170.954 23.2168 174.847 23.202C176.323 23.1899 177.799 23.164 179.274 23.1236C189.831 22.8489 196.051 24.8607 204 32C205.603 33.2458 207.214 34.482 208.836 35.7031C210.35 36.8836 211.863 38.0659 213.375 39.25C214.142 39.8481 214.909 40.4463 215.699 41.0625C217.162 42.2041 218.622 43.3479 220.081 44.4941C221.707 45.7698 223.341 47.0345 224.977 48.2969C227 50 227 50 228 52C228.112 54.0359 228.159 56.0756 228.177 58.1145C228.196 60.0421 228.196 60.0421 228.216 62.0086C228.224 63.4185 228.232 64.8284 228.238 66.2383C228.242 66.9473 228.246 67.6564 228.251 68.3869C228.271 72.1403 228.286 75.8937 228.295 79.6472C228.306 83.5211 228.341 87.3944 228.38 91.2681C228.407 94.2493 228.415 97.2304 228.418 100.212C228.423 101.639 228.435 103.067 228.453 104.495C228.478 106.495 228.474 108.496 228.47 110.497C228.476 111.635 228.482 112.772 228.488 113.945C227.893 117.673 226.593 119.309 224 122C221.96 123.33 221.96 123.33 219.805 124.316C219.005 124.688 218.206 125.06 217.383 125.443C216.555 125.813 215.728 126.182 214.875 126.562C214.071 126.936 213.266 127.309 212.438 127.693C210.802 128.445 209.156 129.175 207.502 129.885C204.968 130.973 204.968 130.973 202.511 132.365C196.462 135.433 196.462 135.433 192.486 134.255C189.77 132.798 187.319 131.168 184.812 129.375C183.91 128.772 183.007 128.169 182.077 127.548C180.244 126.319 178.422 125.074 176.61 123.814C174.197 122.137 171.762 120.506 169.305 118.895C165.849 116.626 162.418 114.326 159 112C161.271 104.844 164.01 97.9734 166.938 91.0625C172.248 78.46 177.193 65.8184 182 53C166.49 53 150.98 53 135 53C131.928 46.2422 129.058 39.7867 126.688 32.8125C126.424 32.0513 126.16 31.2901 125.889 30.5059C125.254 28.6722 124.626 26.8363 124 25C125.828 23.1719 128.722 23.8055 131.181 23.7595Z" fill="#8AC24C"/>
<path d="M328.133 28.8865C329.049 28.8917 329.966 28.8969 330.91 28.9023C332.394 28.9072 332.394 28.9072 333.908 28.9121C334.949 28.9205 335.99 28.9289 337.062 28.9375C338.63 28.9443 338.63 28.9443 340.229 28.9512C342.819 28.963 345.41 28.9795 348 29C355.689 44.8454 363.248 60.7406 370.633 76.7305C373.045 81.951 375.481 87.16 377.93 92.3633C378.584 93.7561 379.239 95.1489 379.893 96.5417C380.847 98.5724 381.802 100.602 382.761 102.631C383.642 104.494 384.519 106.36 385.395 108.227C386.15 109.829 386.15 109.829 386.921 111.463C388 114 388 114 388 116C381.07 116 374.14 116 367 116C365.845 113.566 364.69 111.132 363.5 108.625C363.135 107.86 362.769 107.095 362.393 106.307C360 101.222 360 101.222 360 99C347.79 99 335.58 99 323 99C324.19 93.049 326.422 88.4874 329 83C336.26 83 343.52 83 351 83C347.684 74.0145 343.965 65.3215 339.948 56.6299C339.567 55.7994 339.186 54.9689 338.793 54.1133C338.448 53.3686 338.103 52.6239 337.747 51.8567C337 50 337 50 337 48C336.34 48 335.68 48 335 48C334.89 48.6983 334.78 49.3965 334.667 50.116C333.914 53.3724 332.73 56.108 331.332 59.1445C330.925 60.0369 330.925 60.0369 330.509 60.9473C329.921 62.2333 329.331 63.5182 328.739 64.8022C327.152 68.2458 325.582 71.6973 324.012 75.1484C323.522 76.2237 323.522 76.2237 323.022 77.3207C319.308 85.4904 315.711 93.7111 312.125 101.938C311.815 102.648 311.505 103.359 311.185 104.092C309.454 108.06 307.727 112.03 306 116C299.07 116 292.14 116 285 116C288.372 105.885 288.372 105.885 290.68 101.199C291.19 100.154 291.7 99.1088 292.225 98.032C292.77 96.9283 293.314 95.8246 293.875 94.6875C295.049 92.2821 296.221 89.8761 297.391 87.4688C297.839 86.5465 297.839 86.5465 298.297 85.6056C301.498 79.0084 304.561 72.3494 307.625 65.6875C311.709 56.832 315.889 48.0353 320.25 39.3125C320.949 37.9129 320.949 37.9129 321.663 36.4851C325.421 29.0308 325.421 29.0308 328.133 28.8865Z" fill="#2E92C8"/>
<path d="M396 29C402.6 29 409.2 29 416 29C416 57.71 416 86.42 416 116C409.4 116 402.8 116 396 116C396 87.29 396 58.58 396 29Z" fill="#3191C6"/>
<path d="M127.702 23.8798C129.51 23.8831 129.51 23.8831 131.356 23.8865C132.351 23.8863 132.351 23.8863 133.366 23.886C135.568 23.8867 137.77 23.8945 139.973 23.9024C141.496 23.9042 143.019 23.9056 144.542 23.9066C148.558 23.9105 152.575 23.9203 156.591 23.9314C160.686 23.9416 164.782 23.9461 168.877 23.9512C176.918 23.9619 184.959 23.979 193 24C192.433 28.2201 191.837 31.9708 190.223 35.918C189.874 36.7797 189.525 37.6415 189.166 38.5293C188.802 39.4065 188.438 40.2837 188.062 41.1875C187.702 42.0763 187.342 42.9651 186.971 43.8809C185.43 47.6579 183.862 51.3684 182 55C182 54.34 182 53.68 182 53C166.49 53 150.98 53 135 53C131.928 46.2422 129.058 39.7867 126.688 32.8125C126.424 32.0513 126.16 31.2901 125.889 30.5059C125.254 28.6722 124.626 26.8364 124 25C125 24 125 24 127.702 23.8798Z" fill="#77B84F"/>
<path d="M135 53C150.51 53 166.02 53 182 53C181.205 57.7674 180.144 61.7754 178.43 66.2188C178.168 66.9075 177.905 67.5962 177.635 68.3058C174.363 76.8005 170.744 85.1485 167.125 93.5C166.429 95.1131 165.734 96.7264 165.039 98.3398C163.363 102.228 161.683 106.115 160 110C159.34 110 158.68 110 158 110C152.035 96.8513 146.133 83.7003 140.875 70.25C140.51 69.3179 140.144 68.3859 139.768 67.4255C137.917 62.6247 136.423 57.9816 135 53Z" fill="#63AF4C"/>
<path d="M371 189.75C372.191 189.749 373.383 189.749 374.61 189.748C393.524 189.765 412.083 190.438 430.861 192.74C433.161 193.02 435.463 193.287 437.764 193.552C488.437 199.437 488.437 199.437 494 205C487.816 204.35 481.687 203.53 475.543 202.574C417.544 193.778 353.4 191.755 295.53 202.625C291.358 203.243 287.204 203.167 283 203C282.67 201.68 282.34 200.36 282 199C285.767 195.335 289.947 195.092 294.938 194.437C296.258 194.253 296.258 194.253 297.605 194.065C322.01 190.76 346.394 189.763 371 189.75Z" fill="#F38D39"/>
<path d="M237 60C243.946 61.9845 247.087 63.1305 251 69C251.473 73.6102 251.37 78.2432 251.375 82.875C251.399 84.155 251.424 85.4351 251.449 86.7539C251.453 87.9875 251.457 89.2212 251.461 90.4922C251.469 91.62 251.477 92.7477 251.486 93.9097C250.895 97.6693 249.626 99.2972 247 102C244.676 103.363 244.676 103.363 242.312 104.312C241.131 104.802 241.131 104.802 239.926 105.301C238 106 238 106 237 106C237 90.82 237 75.64 237 60Z" fill="#87C152"/>
<path d="M81 60C81 74.85 81 89.7 81 105C73.1463 103.878 73.1463 103.878 69 99C68.67 98.67 68.34 98.34 68 98C67.7094 93.7988 67.6859 89.5917 67.6499 85.3818C67.6334 83.9676 67.6061 82.5535 67.5679 81.1396C67.5129 79.0979 67.4912 77.058 67.4766 75.0156C67.4468 73.1792 67.4468 73.1792 67.4165 71.3057C68.1635 67.0736 69.7158 65.6786 73 63C78.2759 60 78.2759 60 81 60Z" fill="#50A34F"/>
<path d="M190.75 75.6875C194.424 75.719 195.775 75.864 199 77.8125C202.762 81.9267 203.443 84.3949 203.32 89.7773C202.731 93.8645 200.425 95.9312 197.25 98.3125C193.137 99.5694 189.087 100.107 185.219 98.0547C181.942 95.5009 179.87 93.058 179 89C179.081 84.4684 179.497 82.5783 182.5 79.125C183.737 78.0731 183.737 78.0731 185 77C186.64 75.3596 188.495 75.7509 190.75 75.6875Z" fill="#F19638"/>
<path d="M131 76C134.66 77.8336 137.247 80.1313 138.793 83.9687C139.545 87.8431 139.142 89.7099 137.375 93.3125C133.956 97.1815 131.728 98.78 126.562 99.4375C121.747 98.8461 118.639 97.0856 115.625 93.25C114.658 89.77 114.314 86.5361 115 83C118.84 76.3625 123.696 74.7727 131 76Z" fill="#E88534"/>
<path d="M105.973 1.36327C108 1.99999 108 1.99999 110.062 3.62499C111.373 6.94508 111.379 9.46222 111 13C109.625 15.4375 109.625 15.4375 108 17C107.34 17 106.68 17 106 17C106.122 18.1041 106.122 18.1041 106.246 19.2305C106.756 27.1058 106.756 27.1058 104.441 29.8437C102.5 31.1875 102.5 31.1875 99 33C98.9742 31.9752 98.9484 30.9504 98.9218 29.8945C98.8655 28.5338 98.8082 27.1731 98.75 25.8125C98.7358 25.139 98.7216 24.4654 98.707 23.7715C98.4674 18.8607 97.2181 16.6101 94 13C93.2958 8.61833 93.52 6.74309 95.9375 2.99999C99.6965 0.545083 101.656 0.580314 105.973 1.36327Z" fill="#63B359"/>
<path d="M219 0.999987C222.375 3.06249 222.375 3.06249 225 5.99999C225.687 9.49999 225.687 9.49999 225 13C223.766 14.1041 223.766 14.1041 222.508 15.2305C219.388 18.6761 219.226 21.3706 219.187 25.8125C219.162 26.5054 219.137 27.1982 219.111 27.9121C219.053 29.6075 219.023 31.3038 219 33C216 31.5 216 31.5 213 30C212.681 26.991 212.62 24.0046 212.539 20.9805C211.886 17.3709 210.6 16.4677 208 14C207.212 10.9149 207.344 8.10901 208 4.99999C211.219 1.11814 214.051 0.0910284 219 0.999987Z" fill="#9ACC5A"/>
<path d="M463 197C463.751 197.115 464.501 197.231 465.275 197.35C490.306 201.306 490.306 201.306 494 205C488.875 204.465 483.803 203.834 478.72 202.997C463.573 200.526 448.28 199.328 433 198C433 197.67 433 197.34 433 197C443.347 194.363 452.623 195.405 463 197Z" fill="#F39B53"/>
<path d="M208 7C208.33 7 208.66 7 209 7C209.165 8.0725 209.33 9.145 209.5 10.25C210.205 12.8437 210.691 13.7814 212.914 15.3555C214.901 16.3278 216.949 17.1728 219 18C219 22.95 219 27.9 219 33C217 32 215 31 213 30C212.681 26.991 212.62 24.0046 212.539 20.9805C211.888 17.3815 210.611 16.4406 208 14C207.75 10.25 207.75 10.25 208 7Z" fill="#83C25C"/>
<path d="M467 198C472.505 198.715 477.891 199.749 483.312 200.938C484.123 201.107 484.933 201.277 485.768 201.451C486.929 201.705 486.929 201.705 488.113 201.965C489.162 202.191 489.162 202.191 490.232 202.422C492 203 492 203 494 205C487.448 204.313 480.949 203.436 474.438 202.438C473.524 202.299 472.611 202.16 471.67 202.018C469.446 201.68 467.223 201.341 465 201C465.66 200.01 466.32 199.02 467 198Z" fill="#F3AF73"/>
<path d="M452 197C458.406 196.791 463.93 196.842 470 199C470 199.33 470 199.66 470 200C464.39 200 458.78 200 453 200C452.67 199.01 452.34 198.02 452 197Z" fill="#F29446"/>
<path d="M97.25 46.25C98.1162 46.6213 98.1162 46.6213 99 47C96 50 93 53 90 56C90.3186 52.4959 90.6907 50.416 92.8125 47.5625C95 46 95 46 97.25 46.25Z" fill="#56A658"/>
<path d="M130 76C133.058 77.7356 135.634 79.3847 138 82C137.67 82.66 137.34 83.32 137 84C136.567 83.5256 136.134 83.0513 135.688 82.5625C133.977 80.7631 133.977 80.7631 131 80C130.312 77.9375 130.312 77.9375 130 76Z" fill="#E49037"/>
<path d="M289.032 176V134.784H296.008V170.624H317.128V176H289.032ZM332.129 176.64C330.209 176.64 328.417 176.299 326.753 175.616C325.132 174.933 323.83 173.909 322.849 172.544C321.868 171.136 321.377 169.408 321.377 167.36C321.377 164.459 322.358 162.133 324.321 160.384C326.326 158.592 329.398 157.696 333.537 157.696H343.265V156.352C343.265 154.901 343.03 153.749 342.561 152.896C342.134 152.043 341.324 151.424 340.129 151.04C338.977 150.656 337.27 150.464 335.009 150.464C331.425 150.464 328.076 150.997 324.961 152.064V146.88C326.326 146.325 327.99 145.877 329.953 145.536C331.916 145.195 334.028 145.024 336.289 145.024C340.726 145.024 344.097 145.92 346.401 147.712C348.748 149.504 349.921 152.427 349.921 156.48V176H343.969L343.521 172.928C342.284 174.123 340.748 175.04 338.913 175.68C337.121 176.32 334.86 176.64 332.129 176.64ZM333.985 171.648C336.076 171.648 337.889 171.307 339.425 170.624C341.004 169.899 342.284 168.939 343.265 167.744V162.432H333.665C331.617 162.432 330.124 162.837 329.185 163.648C328.289 164.416 327.841 165.611 327.841 167.232C327.841 168.811 328.374 169.941 329.441 170.624C330.508 171.307 332.022 171.648 333.985 171.648ZM357.657 176V145.664H364.057L364.377 148.864C365.742 147.797 367.364 146.901 369.241 146.176C371.161 145.408 373.273 145.024 375.577 145.024C379.502 145.024 382.361 145.941 384.153 147.776C385.945 149.611 386.841 152.469 386.841 156.352V176H379.929V156.672C379.929 154.325 379.438 152.683 378.457 151.744C377.518 150.805 375.726 150.336 373.081 150.336C371.502 150.336 369.945 150.656 368.409 151.296C366.916 151.936 365.657 152.768 364.633 153.792V176H357.657ZM406.945 187.264C404.684 187.264 402.422 187.115 400.161 186.816C397.9 186.56 395.98 186.155 394.401 185.6V180.224C396.108 180.779 398.07 181.205 400.289 181.504C402.508 181.803 404.62 181.952 406.625 181.952C409.697 181.952 411.937 181.781 413.345 181.44C414.753 181.099 415.457 180.331 415.457 179.136C415.457 178.24 415.116 177.6 414.433 177.216C413.75 176.875 412.449 176.704 410.529 176.704H402.337C396.833 176.704 394.081 174.763 394.081 170.88C394.081 169.643 394.444 168.491 395.169 167.424C395.894 166.357 397.046 165.547 398.625 164.992C396.876 164.139 395.574 162.965 394.721 161.472C393.91 159.979 393.505 158.187 393.505 156.096C393.505 152.213 394.657 149.397 396.961 147.648C399.308 145.899 402.806 145.024 407.457 145.024C408.438 145.024 409.462 145.109 410.529 145.28C411.596 145.408 412.428 145.536 413.025 145.664H424.161L423.969 150.208H418.849C419.66 150.891 420.257 151.744 420.641 152.768C421.025 153.792 421.217 154.901 421.217 156.096C421.217 159.339 420.236 161.899 418.273 163.776C416.31 165.611 413.345 166.528 409.377 166.528C408.694 166.528 408.054 166.507 407.457 166.464C406.902 166.379 406.284 166.293 405.601 166.208C404.321 166.336 403.169 166.677 402.145 167.232C401.121 167.787 400.609 168.533 400.609 169.472C400.609 170.112 400.865 170.581 401.377 170.88C401.889 171.136 402.742 171.264 403.937 171.264H412.449C415.478 171.264 417.804 171.925 419.425 173.248C421.089 174.528 421.921 176.405 421.921 178.88C421.921 181.867 420.62 184 418.017 185.28C415.457 186.603 411.766 187.264 406.945 187.264ZM407.457 162.112C410.23 162.112 412.15 161.643 413.217 160.704C414.326 159.765 414.881 158.165 414.881 155.904C414.881 153.643 414.326 152 413.217 150.976C412.15 149.952 410.23 149.44 407.457 149.44C404.854 149.44 402.956 149.931 401.761 150.912C400.566 151.893 399.969 153.557 399.969 155.904C399.969 158.08 400.524 159.659 401.633 160.64C402.785 161.621 404.726 162.112 407.457 162.112ZM441.039 176.64C437.412 176.64 434.617 175.637 432.655 173.632C430.735 171.627 429.775 168.683 429.775 164.8V145.664H436.751V164.8C436.751 167.061 437.305 168.725 438.415 169.792C439.524 170.859 441.231 171.392 443.535 171.392C445.241 171.392 446.82 171.072 448.271 170.432C449.721 169.792 450.98 168.939 452.047 167.872V145.664H458.958V176H452.623L452.303 172.864C450.937 173.931 449.316 174.827 447.439 175.552C445.561 176.277 443.428 176.64 441.039 176.64ZM475.629 176.64C473.709 176.64 471.917 176.299 470.253 175.616C468.632 174.933 467.33 173.909 466.349 172.544C465.368 171.136 464.877 169.408 464.877 167.36C464.877 164.459 465.858 162.133 467.821 160.384C469.826 158.592 472.898 157.696 477.037 157.696H486.765V156.352C486.765 154.901 486.53 153.749 486.061 152.896C485.634 152.043 484.824 151.424 483.629 151.04C482.477 150.656 480.77 150.464 478.509 150.464C474.925 150.464 471.576 150.997 468.461 152.064V146.88C469.826 146.325 471.49 145.877 473.453 145.536C475.416 145.195 477.528 145.024 479.789 145.024C484.226 145.024 487.597 145.92 489.901 147.712C492.248 149.504 493.421 152.427 493.421 156.48V176H487.469L487.021 172.928C485.784 174.123 484.248 175.04 482.413 175.68C480.621 176.32 478.36 176.64 475.629 176.64ZM477.485 171.648C479.576 171.648 481.389 171.307 482.925 170.624C484.504 169.899 485.784 168.939 486.765 167.744V162.432H477.165C475.117 162.432 473.624 162.837 472.685 163.648C471.789 164.416 471.341 165.611 471.341 167.232C471.341 168.811 471.874 169.941 472.941 170.624C474.008 171.307 475.522 171.648 477.485 171.648ZM513.445 187.264C511.184 187.264 508.922 187.115 506.661 186.816C504.4 186.56 502.48 186.155 500.901 185.6V180.224C502.608 180.779 504.57 181.205 506.789 181.504C509.008 181.803 511.12 181.952 513.125 181.952C516.197 181.952 518.437 181.781 519.845 181.44C521.253 181.099 521.957 180.331 521.957 179.136C521.957 178.24 521.616 177.6 520.933 177.216C520.25 176.875 518.949 176.704 517.029 176.704H508.837C503.333 176.704 500.581 174.763 500.581 170.88C500.581 169.643 500.944 168.491 501.669 167.424C502.394 166.357 503.546 165.547 505.125 164.992C503.376 164.139 502.074 162.965 501.221 161.472C500.41 159.979 500.005 158.187 500.005 156.096C500.005 152.213 501.157 149.397 503.461 147.648C505.808 145.899 509.306 145.024 513.957 145.024C514.938 145.024 515.962 145.109 517.029 145.28C518.096 145.408 518.928 145.536 519.525 145.664H530.661L530.469 150.208H525.349C526.16 150.891 526.757 151.744 527.141 152.768C527.525 153.792 527.717 154.901 527.717 156.096C527.717 159.339 526.736 161.899 524.773 163.776C522.81 165.611 519.845 166.528 515.877 166.528C515.194 166.528 514.554 166.507 513.957 166.464C513.402 166.379 512.784 166.293 512.101 166.208C510.821 166.336 509.669 166.677 508.645 167.232C507.621 167.787 507.109 168.533 507.109 169.472C507.109 170.112 507.365 170.581 507.877 170.88C508.389 171.136 509.242 171.264 510.437 171.264H518.949C521.978 171.264 524.304 171.925 525.925 173.248C527.589 174.528 528.421 176.405 528.421 178.88C528.421 181.867 527.12 184 524.517 185.28C521.957 186.603 518.266 187.264 513.445 187.264ZM513.957 162.112C516.73 162.112 518.65 161.643 519.717 160.704C520.826 159.765 521.381 158.165 521.381 155.904C521.381 153.643 520.826 152 519.717 150.976C518.65 149.952 516.73 149.44 513.957 149.44C511.354 149.44 509.456 149.931 508.261 150.912C507.066 151.893 506.469 153.557 506.469 155.904C506.469 158.08 507.024 159.659 508.133 160.64C509.285 161.621 511.226 162.112 513.957 162.112ZM551.33 176.64C546.039 176.64 541.943 175.339 539.042 172.736C536.14 170.133 534.69 166.144 534.69 160.768C534.69 155.904 535.927 152.064 538.402 149.248C540.876 146.432 544.631 145.024 549.666 145.024C554.274 145.024 557.73 146.24 560.034 148.672C562.38 151.061 563.554 154.155 563.554 157.952V163.584H541.345C541.687 166.528 542.754 168.555 544.546 169.664C546.338 170.773 549.068 171.328 552.738 171.328C554.274 171.328 555.852 171.179 557.474 170.88C559.095 170.581 560.503 170.197 561.698 169.728V174.848C560.332 175.445 558.754 175.893 556.962 176.192C555.212 176.491 553.335 176.64 551.33 176.64ZM541.345 159.04H557.41V156.928C557.41 154.837 556.834 153.216 555.682 152.064C554.53 150.869 552.588 150.272 549.858 150.272C546.615 150.272 544.375 150.976 543.138 152.384C541.943 153.792 541.345 156.011 541.345 159.04ZM585.095 176V134.784H605.063C609.159 134.784 612.188 135.744 614.151 137.664C616.113 139.584 617.095 142.293 617.095 145.792C617.095 148.011 616.647 149.888 615.751 151.424C614.855 152.917 613.66 154.048 612.167 154.816C614.172 155.371 615.751 156.373 616.903 157.824C618.097 159.232 618.694 161.323 618.694 164.096C618.694 168.107 617.606 171.093 615.431 173.056C613.297 175.019 610.14 176 605.959 176H585.095ZM592.071 152.384H604.103C606.449 152.384 608.113 151.851 609.095 150.784C610.119 149.675 610.631 148.203 610.631 146.368C610.631 144.235 610.119 142.656 609.095 141.632C608.071 140.565 606.151 140.032 603.335 140.032H592.071V152.384ZM592.071 170.88H604.487C606.961 170.88 608.775 170.368 609.927 169.344C611.079 168.277 611.655 166.443 611.655 163.84C611.655 161.707 611.079 160.128 609.927 159.104C608.817 158.037 606.769 157.504 603.783 157.504H592.071V170.88ZM636.414 176.64C632.787 176.64 629.992 175.637 628.03 173.632C626.11 171.627 625.15 168.683 625.15 164.8V145.664H632.126V164.8C632.126 167.061 632.68 168.725 633.79 169.792C634.899 170.859 636.606 171.392 638.91 171.392C640.616 171.392 642.195 171.072 643.646 170.432C645.096 169.792 646.355 168.939 647.422 167.872V145.664H654.333V176H647.998L647.678 172.864C646.312 173.931 644.691 174.827 642.814 175.552C640.936 176.277 638.803 176.64 636.414 176.64ZM675.014 176.64C672.283 176.64 669.872 176.171 667.782 175.232C665.691 174.293 664.07 172.736 662.918 170.56C661.766 168.384 661.19 165.461 661.19 161.792C661.19 158.165 661.808 155.115 663.046 152.64C664.283 150.123 665.99 148.224 668.166 146.944C670.384 145.664 672.88 145.024 675.654 145.024C677.488 145.024 679.11 145.237 680.518 145.664C681.968 146.091 683.355 146.752 684.678 147.648V132.864H691.654V176H685.702L685.254 172.992C683.888 174.229 682.395 175.147 680.774 175.744C679.152 176.341 677.232 176.64 675.014 176.64ZM676.87 171.392C679.984 171.392 682.587 170.325 684.678 168.192V153.024C682.672 151.232 680.155 150.336 677.126 150.336C674.182 150.336 671.963 151.317 670.47 153.28C668.976 155.243 668.23 158.101 668.23 161.856C668.23 165.483 668.912 167.979 670.278 169.344C671.686 170.709 673.883 171.392 676.87 171.392ZM711.639 176.64C708.908 176.64 706.497 176.171 704.407 175.232C702.316 174.293 700.695 172.736 699.543 170.56C698.391 168.384 697.815 165.461 697.815 161.792C697.815 158.165 698.433 155.115 699.671 152.64C700.908 150.123 702.615 148.224 704.791 146.944C707.009 145.664 709.505 145.024 712.279 145.024C714.113 145.024 715.735 145.237 717.143 145.664C718.593 146.091 719.98 146.752 721.303 147.648V132.864H728.279V176H722.327L721.879 172.992C720.513 174.229 719.02 175.147 717.399 175.744C715.777 176.341 713.857 176.64 711.639 176.64ZM713.495 171.392C716.609 171.392 719.212 170.325 721.303 168.192V153.024C719.297 151.232 716.78 150.336 713.751 150.336C710.807 150.336 708.588 151.317 707.095 153.28C705.601 155.243 704.855 158.101 704.855 161.856C704.855 165.483 705.537 167.979 706.903 169.344C708.311 170.709 710.508 171.392 713.495 171.392ZM741.568 187.264C739.264 187.264 737.301 186.965 735.68 186.368V181.184C736.405 181.44 737.066 181.611 737.664 181.696C738.304 181.781 738.944 181.824 739.584 181.824C740.906 181.824 741.973 181.611 742.784 181.184C743.594 180.757 744.298 180.075 744.896 179.136C745.536 178.24 746.218 177.067 746.944 175.616L733.44 145.664H740.672L750.4 168.192L760.256 145.664H767.424L755.072 174.272C754.005 176.832 752.853 179.072 751.616 180.992C750.421 182.955 749.013 184.491 747.392 185.6C745.813 186.709 743.872 187.264 741.568 187.264Z" fill="#67B142"/>
</svg>
